# xmcd CD database file
#
# Track frame offsets:
#	150
#	12097
#	22389
#	34196
#	47537
#	59523
#	69503
#	81238
#	92400
#	104046
#	114839
#	125506
#	135812
#
# Disc length: 1944 seconds
#
# Revision: 6
# Processed by: cddbd v1.5.2PL0 Copyright (c) Steve Scherf et al.
# Submitted via: CDex 1.70beta2
#
DISCID=a707960d
DTITLE=Robert Johnson - Cross Road Blues - CD 1
DYEAR=1936
DGENRE=Blues
TTITLE0=When You Got A Good Friend
TTITLE1=Stop Breakin' Down Blues
TTITLE2=Come On In My Kitchen
TTITLE3=I Believe I'll Dust My Broom
TTITLE4=Phonograph Blues
TTITLE5=Little Queen Of Spades
TTITLE6=I'm A Steady Rollin' Man
TTITLE7=Love In Vain
TTITLE8=Dead Shrimp Blues
TTITLE9=From Four 'Til Late
TTITLE10=Malted Milk
TTITLE11=Honeymoon Blues
TTITLE12=Little  Queen Of Spades
EXTD=YEAR: 1936
EXTT0=
EXTT1=
EXTT2=
EXTT3=
EXTT4=
EXTT5=
EXTT6=
EXTT7=
EXTT8=
EXTT9=
EXTT10=
EXTT11=
EXTT12=
PLAYORDER=
